<svg width="80" height="80" viewBox="0 0 80 80" fill="none" xmlns="http://www.w3.org/2000/svg">
<path d="M34.24 12.35C34.588 12.9068 34.8229 13.5267 34.9314 14.1743C35.0398 14.8219 35.0196 15.4845 34.872 16.1243C34.7243 16.7641 34.4521 17.3686 34.0709 17.9032C33.6896 18.4377 33.2068 18.892 32.65 19.24C26.5645 23.0305 21.7301 28.5292 18.75 35.05C21.7594 34.7984 24.7748 35.4609 27.4015 36.9511C30.0282 38.4412 32.1439 40.6895 33.4719 43.4018C34.7999 46.114 35.2782 49.164 34.8444 52.1526C34.4106 55.1412 33.0848 57.9293 31.0404 60.1521C28.9961 62.3749 26.3284 63.9288 23.3864 64.6106C20.4445 65.2924 17.3652 65.0703 14.5515 63.9733C11.7379 62.8764 9.32081 60.9557 7.61661 58.4626C5.91241 55.9694 5.00044 53.02 5 50V49.865C5.00544 49.4779 5.02211 49.0911 5.05 48.705C5.095 47.955 5.185 46.905 5.36 45.615C5.71 43.05 6.395 39.515 7.78 35.545C10.54 27.595 16.13 17.77 27.35 10.76C27.9068 10.412 28.5267 10.1771 29.1743 10.0687C29.8219 9.96022 30.4845 9.9804 31.1243 10.128C31.7641 10.2757 32.3685 10.5479 32.9031 10.9292C33.4377 11.3104 33.892 11.7932 34.24 12.35ZM69.24 12.35C69.588 12.9068 69.8229 13.5267 69.9314 14.1743C70.0398 14.8219 70.0196 15.4845 69.872 16.1243C69.7243 16.7641 69.4521 17.3686 69.0709 17.9032C68.6896 18.4377 68.2068 18.892 67.65 19.24C61.5645 23.0305 56.7301 28.5292 53.75 35.05C56.7594 34.7984 59.7748 35.4609 62.4015 36.9511C65.0282 38.4412 67.1439 40.6895 68.4719 43.4018C69.7999 46.114 70.2782 49.164 69.8444 52.1526C69.4106 55.1412 68.0848 57.9293 66.0404 60.1521C63.9961 62.3749 61.3284 63.9288 58.3864 64.6106C55.4445 65.2924 52.3652 65.0703 49.5515 63.9733C46.7379 62.8764 44.3208 60.9557 42.6166 58.4626C40.9124 55.9694 40.0004 53.02 40 50V49.865C40.0054 49.4779 40.0221 49.0911 40.05 48.705C40.095 47.955 40.185 46.905 40.36 45.615C40.71 43.05 41.395 39.515 42.78 35.545C45.54 27.595 51.13 17.77 62.35 10.76C62.9068 10.412 63.5267 10.1771 64.1743 10.0687C64.8219 9.96022 65.4845 9.9804 66.1243 10.128C66.7641 10.2757 67.3685 10.5479 67.9031 10.9292C68.4377 11.3104 68.892 11.7932 69.24 12.35Z" fill="black" fill-opacity="0.6"/>
</svg>
