<svg width="93" height="14" viewBox="0 0 93 14" fill="none" xmlns="http://www.w3.org/2000/svg">
<path d="M0.806 2.9H3.159L6.903 7.71V2.9H9.399V12H7.189L3.302 7.008V12H0.806V2.9ZM11.013 2.9H18.332V5.045H13.509V6.423H17.877V8.412H13.509V9.855H18.397V12H11.013V2.9ZM24.2859 9.907C24.6326 9.907 24.9489 9.842 25.2349 9.712C25.5209 9.582 25.7636 9.40867 25.9629 9.192C26.1623 8.96667 26.3183 8.70667 26.4309 8.412C26.5436 8.11733 26.5999 7.80533 26.5999 7.476V7.45C26.5999 7.12067 26.5436 6.80867 26.4309 6.514C26.3183 6.21933 26.1579 5.95933 25.9499 5.734C25.7419 5.50867 25.4949 5.331 25.2089 5.201C24.9229 5.06233 24.6066 4.993 24.2599 4.993C23.9133 4.993 23.5969 5.058 23.3109 5.188C23.0336 5.318 22.7909 5.49567 22.5829 5.721C22.3836 5.93767 22.2276 6.19333 22.1149 6.488C22.0109 6.78267 21.9589 7.09467 21.9589 7.424V7.45C21.9589 7.77933 22.0153 8.09133 22.1279 8.386C22.2406 8.68067 22.3966 8.94067 22.5959 9.166C22.8039 9.39133 23.0509 9.57333 23.3369 9.712C23.6229 9.842 23.9393 9.907 24.2859 9.907ZM24.2599 12.182C23.5579 12.182 22.9079 12.0607 22.3099 11.818C21.7119 11.5667 21.1963 11.2287 20.7629 10.804C20.3296 10.3793 19.9873 9.881 19.7359 9.309C19.4933 8.737 19.3719 8.126 19.3719 7.476V7.45C19.3719 6.8 19.4933 6.189 19.7359 5.617C19.9873 5.03633 20.3339 4.53367 20.7759 4.109C21.2179 3.67567 21.7379 3.33767 22.3359 3.095C22.9339 2.84367 23.5839 2.718 24.2859 2.718C24.9879 2.718 25.6379 2.84367 26.2359 3.095C26.8339 3.33767 27.3496 3.67133 27.7829 4.096C28.2163 4.52067 28.5543 5.019 28.7969 5.591C29.0483 6.163 29.1739 6.774 29.1739 7.424V7.45C29.1739 8.1 29.0483 8.71533 28.7969 9.296C28.5543 9.868 28.2119 10.3707 27.7699 10.804C27.3279 11.2287 26.8079 11.5667 26.2099 11.818C25.6119 12.0607 24.9619 12.182 24.2599 12.182ZM34.8686 12.182C34.2186 12.182 33.6076 12.065 33.0356 11.831C32.4636 11.597 31.9653 11.272 31.5406 10.856C31.1246 10.4313 30.791 9.933 30.5396 9.361C30.297 8.78033 30.1756 8.152 30.1756 7.476V7.45C30.1756 6.79133 30.297 6.176 30.5396 5.604C30.7823 5.02333 31.116 4.52067 31.5406 4.096C31.9653 3.66267 32.468 3.32467 33.0486 3.082C33.638 2.83933 34.2793 2.718 34.9726 2.718C35.4406 2.718 35.8653 2.76567 36.2466 2.861C36.628 2.94767 36.9746 3.07767 37.2866 3.251C37.6073 3.41567 37.8933 3.615 38.1446 3.849C38.4046 4.083 38.6343 4.33867 38.8336 4.616L36.9356 6.085C36.6756 5.75567 36.3896 5.49567 36.0776 5.305C35.7656 5.11433 35.3886 5.019 34.9466 5.019C34.626 5.019 34.3313 5.084 34.0626 5.214C33.8026 5.33533 33.5773 5.50433 33.3866 5.721C33.196 5.93767 33.0443 6.19333 32.9316 6.488C32.8276 6.78267 32.7756 7.09467 32.7756 7.424V7.45C32.7756 7.788 32.8276 8.10867 32.9316 8.412C33.0443 8.70667 33.196 8.96233 33.3866 9.179C33.5773 9.39567 33.8026 9.569 34.0626 9.699C34.3313 9.82033 34.626 9.881 34.9466 9.881C35.1806 9.881 35.393 9.855 35.5836 9.803C35.783 9.751 35.9606 9.67733 36.1166 9.582C36.2813 9.478 36.433 9.361 36.5716 9.231C36.719 9.09233 36.862 8.94067 37.0006 8.776L38.8986 10.128C38.682 10.4227 38.4436 10.6957 38.1836 10.947C37.9323 11.1983 37.642 11.415 37.3126 11.597C36.992 11.779 36.628 11.922 36.2206 12.026C35.822 12.13 35.3713 12.182 34.8686 12.182ZM45.3397 8.412L44.3257 5.825L43.2987 8.412H45.3397ZM43.1297 2.835H45.5607L49.4347 12H46.7307L46.0677 10.375H42.5577L41.9077 12H39.2557L43.1297 2.835ZM54.5037 7.268C54.9371 7.268 55.2707 7.17267 55.5047 6.982C55.7387 6.78267 55.8557 6.51833 55.8557 6.189V6.163C55.8557 5.799 55.7344 5.53033 55.4917 5.357C55.2491 5.175 54.9154 5.084 54.4907 5.084H52.8397V7.268H54.5037ZM50.3177 2.9H54.6207C55.3227 2.9 55.9164 2.98667 56.4017 3.16C56.8871 3.33333 57.2814 3.576 57.5847 3.888C58.1221 4.408 58.3907 5.11433 58.3907 6.007V6.033C58.3907 6.735 58.2217 7.31567 57.8837 7.775C57.5457 8.23433 57.0907 8.58533 56.5187 8.828L58.6897 12H55.7777L53.9447 9.244H53.9187H52.8397V12H50.3177V2.9ZM64.0685 9.972C64.4585 9.972 64.7575 9.90267 64.9655 9.764C65.1735 9.61667 65.2775 9.40867 65.2775 9.14V9.114C65.2775 8.86267 65.1778 8.66333 64.9785 8.516C64.7791 8.36867 64.4671 8.295 64.0425 8.295H62.1185V9.972H64.0685ZM63.7045 6.527C64.0945 6.527 64.3891 6.462 64.5885 6.332C64.7965 6.202 64.9005 6.00267 64.9005 5.734V5.708C64.9005 5.45667 64.8051 5.266 64.6145 5.136C64.4238 4.99733 64.1378 4.928 63.7565 4.928H62.1185V6.527H63.7045ZM59.6615 2.9H64.3285C64.9005 2.9 65.3901 2.96933 65.7975 3.108C66.2048 3.24667 66.5428 3.45033 66.8115 3.719C66.9935 3.901 67.1365 4.11333 67.2405 4.356C67.3445 4.59867 67.3965 4.876 67.3965 5.188V5.214C67.3965 5.74267 67.2621 6.17167 66.9935 6.501C66.7335 6.82167 66.3998 7.06867 65.9925 7.242C66.5471 7.424 66.9848 7.68833 67.3055 8.035C67.6348 8.373 67.7995 8.84967 67.7995 9.465V9.491C67.7995 10.2797 67.4961 10.895 66.8895 11.337C66.2915 11.779 65.4465 12 64.3545 12H59.6615V2.9ZM73.5564 9.907C73.9031 9.907 74.2194 9.842 74.5054 9.712C74.7914 9.582 75.0341 9.40867 75.2334 9.192C75.4328 8.96667 75.5888 8.70667 75.7014 8.412C75.8141 8.11733 75.8704 7.80533 75.8704 7.476V7.45C75.8704 7.12067 75.8141 6.80867 75.7014 6.514C75.5888 6.21933 75.4284 5.95933 75.2204 5.734C75.0124 5.50867 74.7654 5.331 74.4794 5.201C74.1934 5.06233 73.8771 4.993 73.5304 4.993C73.1838 4.993 72.8674 5.058 72.5814 5.188C72.3041 5.318 72.0614 5.49567 71.8534 5.721C71.6541 5.93767 71.4981 6.19333 71.3854 6.488C71.2814 6.78267 71.2294 7.09467 71.2294 7.424V7.45C71.2294 7.77933 71.2858 8.09133 71.3984 8.386C71.5111 8.68067 71.6671 8.94067 71.8664 9.166C72.0744 9.39133 72.3214 9.57333 72.6074 9.712C72.8934 9.842 73.2098 9.907 73.5564 9.907ZM73.5304 12.182C72.8284 12.182 72.1784 12.0607 71.5804 11.818C70.9824 11.5667 70.4668 11.2287 70.0334 10.804C69.6001 10.3793 69.2578 9.881 69.0064 9.309C68.7638 8.737 68.6424 8.126 68.6424 7.476V7.45C68.6424 6.8 68.7638 6.189 69.0064 5.617C69.2578 5.03633 69.6044 4.53367 70.0464 4.109C70.4884 3.67567 71.0084 3.33767 71.6064 3.095C72.2044 2.84367 72.8544 2.718 73.5564 2.718C74.2584 2.718 74.9084 2.84367 75.5064 3.095C76.1044 3.33767 76.6201 3.67133 77.0534 4.096C77.4868 4.52067 77.8248 5.019 78.0674 5.591C78.3188 6.163 78.4444 6.774 78.4444 7.424V7.45C78.4444 8.1 78.3188 8.71533 78.0674 9.296C77.8248 9.868 77.4824 10.3707 77.0404 10.804C76.5984 11.2287 76.0784 11.5667 75.4804 11.818C74.8824 12.0607 74.2324 12.182 73.5304 12.182ZM79.7581 2.9H82.1111L85.8551 7.71V2.9H88.3511V12H86.1411L82.2541 7.008V12H79.7581V2.9Z" fill="black"/>
<rect x="91" width="2" height="2" fill="#ED1C24"/>
</svg>
