<svg width="24" height="24" viewBox="0 0 24 24" fill="none" xmlns="http://www.w3.org/2000/svg">
<path d="M5 9C5 7.14348 5.7375 5.36301 7.05025 4.05025C8.36301 2.7375 10.1435 2 12 2C13.8565 2 15.637 2.7375 16.9497 4.05025C18.2625 5.36301 19 7.14348 19 9V15C19 15.9193 18.8189 16.8295 18.4672 17.6788C18.1154 18.5281 17.5998 19.2997 16.9497 19.9497C16.2997 20.5998 15.5281 21.1154 14.6788 21.4672C13.8295 21.8189 12.9193 22 12 22C11.0807 22 10.1705 21.8189 9.32122 21.4672C8.47194 21.1154 7.70026 20.5998 7.05025 19.9497C6.40024 19.2997 5.88463 18.5281 5.53284 17.6788C5.18106 16.8295 5 15.9193 5 15V9Z" stroke="white" stroke-width="1.5"/>
<path d="M10.5 8.5C10.5 8.10218 10.658 7.72064 10.9393 7.43934C11.2206 7.15804 11.6022 7 12 7C12.3978 7 12.7794 7.15804 13.0607 7.43934C13.342 7.72064 13.5 8.10218 13.5 8.5V10.5C13.5 10.8978 13.342 11.2794 13.0607 11.5607C12.7794 11.842 12.3978 12 12 12C11.6022 12 11.2206 11.842 10.9393 11.5607C10.658 11.2794 10.5 10.8978 10.5 10.5V8.5Z" stroke="white" stroke-width="1.5"/>
<path d="M12 2V7" stroke="white" stroke-width="1.5" stroke-linecap="round"/>
</svg>
