<svg width="93" height="22" viewBox="0 0 93 22" fill="none" xmlns="http://www.w3.org/2000/svg">
<g clip-path="url(#clip0_12_92)">
<path d="M29.9257 2.2905L23.6114 17.8318H19.221L18.5648 8.30159H18.5248L14.7026 17.8318H10.2255L9.33447 2.2905H13.3679L13.4677 11.7788L13.5202 11.8207L17.2131 2.29115H21.5635L22.0825 11.8848H22.1225L25.5372 2.29115H29.9263L29.9257 2.2905Z" fill="white"/>
<path d="M34.7369 11.9908L37.0447 6.32973H37.0847L37.7127 11.9908H34.7376H34.7369ZM39.9673 2.2905H35.1936L27.5132 17.8318H32.3386L33.3826 15.2875H38.1077L38.3885 17.8318H42.7789L39.9673 2.2905Z" fill="white"/>
<path d="M58.9776 7.38437L54.8811 7.88093L54.8785 7.79719C54.8529 7.0409 54.6259 6.47891 54.1915 6.11123C53.7578 5.74355 53.2886 5.56037 52.7794 5.56037C52.122 5.56037 51.4874 5.81879 50.8765 6.34087C50.2676 6.85836 49.7912 7.65391 49.4474 8.71901C49.1023 9.78671 48.9468 10.8256 48.9809 11.8371C49.0052 12.6065 49.2204 13.2522 49.6272 13.771C50.0321 14.2918 50.6088 14.5515 51.3529 14.5515C52.0373 14.5515 52.6075 14.3186 53.0642 13.8521C53.5202 13.3843 53.9113 12.6667 54.2335 11.699L58.4481 12.3991C58.0662 14.0033 57.2689 15.3523 56.0563 16.4481C54.8411 17.5433 53.2335 18.0922 51.2296 18.0922C49.2256 18.0922 47.5242 17.4942 46.3818 16.299C45.2394 15.1056 44.6344 13.5152 44.5701 11.5302C44.5202 10.0098 44.7998 8.48348 45.4061 6.9493C46.0104 5.41643 46.9277 4.21068 48.1587 3.33401C49.3897 2.45734 50.8844 2.01965 52.6443 2.01965C54.4041 2.01965 55.9277 2.51098 57.0157 3.4943C58.1069 4.4763 58.7598 5.77234 58.9769 7.38502L58.9776 7.38437Z" fill="white"/>
<path d="M72.4516 14.0373L71.8328 17.8318H60.1484L62.7173 2.2905H67.2344L65.2633 14.0373H72.4516Z" fill="white"/>
<path d="M88.0621 2.29051L87.507 5.62972H80.1533L79.7498 8.1001H86.8384L86.2892 11.2483H79.2091L78.696 14.2905H86.673L86.0766 17.8312H73.6304L76.219 2.28986H88.0615L88.0621 2.29051Z" fill="white"/>
<path d="M7.61167 17.1403H4.71338V17.4838H7.61167V17.8273H10.527V17.1403H7.63005H7.61167Z" fill="white"/>
<path d="M7.61167 15.9038H4.71338V16.246H7.61167V16.5914H10.527V15.9038H7.63005H7.61167Z" fill="white"/>
<path d="M7.61167 13.4275H4.71338V13.773H7.61167V14.1164H10.527V13.4275H7.63005H7.61167Z" fill="white"/>
<path d="M7.61167 14.6653H4.71338V15.0095H7.61167V15.3529H10.527V14.6653H7.63005H7.61167Z" fill="white"/>
<path d="M7.61167 12.191H4.71338V12.5345H7.61167V12.8786H10.527V12.191H7.63005H7.61167Z" fill="white"/>
<path d="M7.61167 10.9539H4.71338V11.2974H7.61167V11.6415H10.527V10.9539H7.63005H7.61167Z" fill="white"/>
<path d="M7.61167 9.71802H4.71338V10.0589H7.61167V10.4043H10.527V9.71802H7.63005H7.61167Z" fill="white"/>
<path d="M7.61167 8.47955H4.71338V8.82303H7.61167V9.16454H10.527V8.47955H7.63005H7.61167Z" fill="white"/>
<path d="M7.61167 7.24109H4.71338V7.58522H7.61167V7.92869H10.527V7.24109H7.63005H7.61167Z" fill="white"/>
<path d="M7.61167 6.00394H4.71338V6.34741H7.61167V6.69154H10.527V6.00394H7.63005H7.61167Z" fill="white"/>
<path d="M7.61167 4.76678H4.71338V5.11026H7.61167V5.45438H10.527V4.76678H7.63005H7.61167Z" fill="white"/>
<path d="M7.61167 3.53094H4.71338V3.87376H7.61167V4.21658H10.527V3.53094H7.63005H7.61167Z" fill="white"/>
<path d="M7.63005 2.29117H7.61167H4.71338V2.63595H7.61167V2.98008H10.527V2.29117H7.63005Z" fill="white"/>
</g>
<defs>
<clipPath id="clip0_12_92">
<rect width="93" height="21.2437" fill="white"/>
</clipPath>
</defs>
</svg>
